<?xml version="1.0" encoding="utf-8"?>
<!-- Generator: Adobe Illustrator 18.1.1, SVG Export Plug-In . SVG Version: 6.00 Build 0)  -->
<!DOCTYPE svg PUBLIC "-//W3C//DTD SVG 1.1//EN" "http://www.w3.org/Graphics/SVG/1.1/DTD/svg11.dtd">
<svg version="1.1" id="Layer_1" xmlns="http://www.w3.org/2000/svg" xmlns:xlink="http://www.w3.org/1999/xlink" x="0px" y="0px"
	 viewBox="356.4 206.7 248.9 45" enable-background="new 356.4 206.7 248.9 45" xml:space="preserve">
<g>
	<g>
		<path fill="#F47F48" d="M363.1,251c8.7,3,17.4-4.5,23.4-13.9c5.5-8.7,8.2-21.1,0.3-24.4c-1.7-1.8-4.9-2.4-8.8-1.1
			c-7.6,2.6-20.6,14.5-21.6,27.8C356.1,244.5,357.8,249.2,363.1,251z M366.9,226.8c6.8-9.3,15.4-13.7,18.5-12.6
			c3.5,1.2,3.1,10.6-3.6,21.2c-6.2,9.8-14.3,14.9-18.4,13.2C359.1,246.9,359.9,236.2,366.9,226.8z"/>
		<path fill="#00B7A3" d="M365.5,249.8c8.7,3,17.4-4.5,23.4-13.9c5.5-8.7,8.2-21.1,0.3-24.4c-1.7-1.8-4.9-2.4-8.8-1.1
			c-7.6,2.6-20.6,14.5-21.6,27.8C358.5,243.3,360.2,248,365.5,249.8z M369.3,225.6c6.8-9.3,15.4-13.7,18.5-12.6
			c3.5,1.2,3.1,10.6-3.6,21.2c-6.2,9.8-14.3,14.9-18.4,13.2C361.5,245.7,362.3,235.1,369.3,225.6z"/>
	</g>
	<g>
		<path fill="#F47F48" d="M386,250.9c0.4,0.5,0.8,0.4,1.1-0.2c2.5-4.9,5.1-9.6,7.7-13.9c2.9,4.4,5.5,8.9,7.6,13.5
			c0.3,0.6,0.7,0.6,1.2,0.1c1.1-1.2,1.8-3.4,0.5-7c-0.7-1.7-2.2-4.6-4.1-7.8c9.3-6.1,18.7-13.9,21.9-17.8c2.6-3.1,2.8-5.2,2.5-6.6
			c-0.2-0.6-0.7-0.6-1.2-0.1c-6.7,6.6-16.4,14.6-25.4,20.9c2.7-4.2,5.1-8,7-11c3-4.8,2.9-7.8,2.2-9.2c-0.5-0.8-0.9-0.9-1.6-0.1
			c-4.4,5.4-17.1,26.9-19.1,32.2C384.7,247.7,385.1,249.6,386,250.9z"/>
		<path fill="#00B7A3" d="M388.4,249.7c0.4,0.5,0.8,0.4,1.1-0.2c2.5-4.9,5.1-9.6,7.7-13.9c2.9,4.4,5.5,8.9,7.6,13.5
			c0.3,0.6,0.7,0.6,1.2,0.1c1.1-1.2,1.8-3.4,0.5-7c-0.7-1.7-2.2-4.6-4.1-7.8c9.3-6.1,18.7-13.9,21.9-17.8c2.6-3.1,2.8-5.2,2.5-6.6
			c-0.2-0.6-0.7-0.6-1.2-0.1c-6.7,6.6-16.4,14.6-25.4,20.9c2.7-4.2,5.1-8,7-11c3-4.8,2.9-7.8,2.2-9.2c-0.5-0.8-0.9-0.9-1.6-0.1
			c-4.4,5.4-17.1,26.9-19.1,32.2C387.1,246.5,387.5,248.4,388.4,249.7z"/>
	</g>
	<g>
		<path fill="#F47F48" d="M427.3,248.7c3.4,1.8,8.9,1.7,13.8-1.5c2.9-1.9,7.4-6.7,6.1-10.9c-0.3-0.8-1-0.8-1.4-0.1
			c-5.6,9.4-12.9,13.8-16.8,10.6c-3-2.5-3-11.7,3.4-21c6.5-9.5,16.9-14.7,18.6-12.9c1.4,1.5-1.2,5.1-2.5,8.4c-1.2,3.2-0.3,5.1,1.1,6
			c0.7,0.5,1.2,0.1,1.5-0.4c0.8-1.8,1.9-4.3,3.1-6.3s1.4-3.7,1-5.5c-0.4-1.6-1.8-3.4-3.1-4.5c-2-1.7-5.2-1.4-8.8,0
			c-7.5,2.8-20,14.4-20.6,27.7C422.2,243.4,424.4,247.3,427.3,248.7z"/>
		<path fill="#00B7A3" d="M429.7,247.5c3.4,1.8,8.9,1.7,13.8-1.5c2.9-1.9,7.4-6.7,6.1-10.9c-0.3-0.8-1-0.8-1.4-0.1
			c-5.6,9.4-12.9,13.8-16.8,10.6c-3-2.5-3-11.7,3.4-21c6.5-9.5,16.9-14.7,18.6-12.9c1.4,1.5-1.2,5.1-2.5,8.4c-1.2,3.2-0.3,5.1,1.1,6
			c0.7,0.5,1.2,0.1,1.5-0.4c0.8-1.8,1.9-4.3,3.1-6.3s1.4-3.7,1-5.5c-0.4-1.6-1.8-3.4-3.1-4.5c-2-1.7-5.2-1.4-8.8,0
			c-7.5,2.8-20,14.4-20.6,27.7C424.6,242.2,426.8,246.1,429.7,247.5z"/>
	</g>
	<g>
		<path fill="#F47F48" d="M556.8,222.6c0.9-0.9,1.5-2.6,0.8-4.2c-0.7-1.7-2.6-2.4-3.7-1.3c-1.1,1.1-1.6,3-0.7,4.7
			C554.1,223.4,555.9,223.5,556.8,222.6z"/>
		<path fill="#00B7A3" d="M559.2,221.4c0.9-0.9,1.5-2.6,0.8-4.2c-0.7-1.7-2.6-2.4-3.7-1.3c-1.1,1.1-1.6,3-0.7,4.7
			C556.5,222.2,558.3,222.3,559.2,221.4z"/>
		<path fill="none" stroke="#FFFFFF" stroke-width="0.598" d="M559.2,221.4c0.9-0.9,1.5-2.6,0.8-4.2c-0.7-1.7-2.6-2.4-3.7-1.3
			c-1.1,1.1-1.6,3-0.7,4.7C556.5,222.2,558.3,222.3,559.2,221.4z"/>
	</g>
	<g>
		<path fill="#F47F48" d="M599,243.6c-2.2,1.3-2.9,2.5-3.8,2.4c-1.9,0-2.5-2.5-1.2-5.7c1.3-3.3,4.8-7.3,7.9-10.5
			c2-2.1,0.7-4.8-0.5-6.1c-0.4-0.5-1-0.4-1.8,0.2c-2.5,1.7-4.8,2.7-6.9,3c1.9-4,2.7-7.6,0.7-7.5c-2.4,0.1-8.6,7.6-5.1,9.9
			c-2.7,3.4-7.5,9.3-9.2,12.1c-0.4,0.7-0.7,1.3-1,1.9c-2,1.8-4,2.9-5.6,2.8c-2.9-0.2-1.8-5.4,1.2-11.6c6.1-3.7,13.9-11.4,16.5-19.1
			c1-3,0.8-5.3-1-6.9c-0.9-0.8-1.8-0.7-2.8,0.4c-7.1,6.8-15.4,18.3-18.6,29.2c-0.2,0.7-0.4,1.4-0.5,2c-2.8,3.6-6.4,6.4-8.9,6.3
			c-2.9-0.2-1.8-5.4,1.2-11.6c6.1-3.7,13.9-11.4,16.5-19.1c1-3,0.8-5.3-1-6.9c-0.9-0.8-1.8-0.7-2.8,0.4
			c-7.1,6.8-15.4,18.3-18.6,29.2c-0.2,0.8-0.4,1.5-0.5,2.1c-2.3,3.3-5.2,6.1-7.6,6.2c-2.1,0.2-2.1-2.3-0.2-6
			c1.6-3.2,4.6-7.5,6.2-10.3c1.8-3.2,1.5-5.9,0.5-6.8c-0.5-0.6-1-0.4-1.6,0.4c-2.7,3.3-7.5,10.8-9.5,15.4c-0.3,0.6-0.5,1.3-0.7,1.9
			c-2.9,3-6.7,5.7-10.7,5.7c-3.9,0-4.9-5.2-0.8-12.3c3.3-5.8,8.5-9.9,9.6-9c0.9,0.7-1.3,3.4-2.2,5.7c-1.1,2.8-0.3,4.7,1.2,5.4
			c0.8,0.4,1.1,0.2,1.4-0.5c1.5-3.4,4.4-6.8,3.2-9.4c-0.7-1.4-1.7-2.4-3.4-3.4c-3.1-1.8-10,1.7-14.7,9.7c-1.8,3-2.6,6-2.5,8.5
			c-2.3,3.1-4.8,5.5-6.8,5.6c-2.4,0.2-2.5-2.8-0.6-6.4c1.7-3.3,5.3-8,6.8-10.8c1.9-3.3,0.1-6.3-2.1-6.6c-2.1-0.3-6.8,3.2-10,6.3
			c0.9-2.3,1.1-4.4,0.2-6c-0.3-0.6-0.9-0.7-1.4,0c-4.5,5.9-10.2,14.7-11.8,18.7c-0.3,0.8-0.6,1.6-0.7,2.3c-1.6,1.7-3.3,2.8-4.6,2.9
			c-2.4,0.2-2.4-2.4-0.5-6.1c1.7-3.3,5.3-7.9,6.9-10.8c1.8-3.2,1.5-5.9,0.6-7c-0.5-0.6-1-0.4-1.7,0.4c-2.2,2.7-4.4,7.1-8.9,13.5
			c-3.9,5.5-7.8,9.8-10.4,9.7c-1.4-0.1-1.5-2.3,0.1-5.4c1.5-3,3.1-5.5,5.8-9.2c2.6-3.7,3.1-6.4,1.8-8.4c-0.5-0.6-1.1-0.6-1.6,0.1
			c-0.9,1.1-2,2.5-2.7,3.5c-2.5,3.5-6.3,6.5-10,6.6c0.1-0.5,0.2-0.9,0.2-1.3c0.7-4.7-1.2-5-2.6-6.9c-1.3-1.7-2.3-2.2-4.3-2.1
			c-3.9,0.3-8.2,3.9-11,8.3c-3.2,5.1-4.6,10.5-2,14.1c2.3,3.2,5.6,3.4,8.1,2.6c4.8-1.6,9.2-7.9,11.1-13.2c2,0.2,4.1-0.4,6-1.2
			c-1.2,2-2.2,3.9-2.9,5.4c-1.7,4.2-1.9,8.7,2.7,9c3.7,0.3,7.3-3.1,9.8-6.1c-0.8,3.6,0.7,6.1,4.9,6.1c1.8,0,3.7-0.8,5.5-1.9
			c0.2,0.5,0.4,0.9,0.8,1.3c0.5,0.6,1,0.3,1.3-0.3c3.2-5.9,6.5-12,10.7-16.1c4.5-4.5,8.4-6.3,9.1-6c1.1,0.5-5.1,7.2-7.7,13.4
			c-2.3,5.5-1.2,9.4,4.3,9.3c2.9,0,6.2-2,8.4-4.5c1.1,2.6,3.7,4.2,7.5,4.1c3.5-0.1,7.3-1.7,10.1-4c0.2,2.3,1.8,3.8,4.8,3.7
			c2.8,0,6-1.6,8.3-4.2c0.5,2.6,2.5,3.8,5.3,3.8c3.3,0,6.5-2.1,8.8-4.1c0.5,2.6,2.5,3.8,5.3,3.8c1.7,0,3.4-0.6,5-1.4
			c0.1,1.1,0.4,2.1,1.2,2.9c0.5,0.6,1,0.2,1.1-0.3c0.7-2.3,2.1-5,3.8-7.9c0.1-0.2,0.2-0.3,0.3-0.4c0,0,0,0,0,0
			c2.6-4.1,5.6-8.3,7.2-10.9c2,0,4.8-0.6,7.8-2.5c-2.8,2.9-6.9,7.5-8.7,11.6c-2,4.7-0.4,8.8,4.3,9c1.1,0,3.4-0.7,5.4-3
			C601.9,242.4,601.2,242.4,599,243.6z M576.8,228.6c5.1-8.1,10.4-15.2,11.2-14.7c0.8,0.5-3.6,10.6-13,17.7
			C575.6,230.7,576.2,229.6,576.8,228.6z M562.8,228.9c5.1-8.1,10.4-15.2,11.2-14.7c0.8,0.5-3.6,10.6-13,17.7
			C561.5,230.9,562.1,229.9,562.8,228.9z M462.8,240.2c-3.7,5.8-7.9,8.1-9.5,6.7c-1.6-1.4-0.3-7.1,2.8-11.9c1.6-2.5,3.7-4.6,5.5-6
			c-0.2,2.6,1.7,5,3.8,6.1C464.7,236.7,463.9,238.4,462.8,240.2z M466,233.3c-1.1-1-1.5-2.5-1.2-4.2c0.3-1.8,1.9-2.2,2-0.2
			C466.8,229.9,466.7,231.4,466,233.3z"/>
		<path fill="#00B7A3" d="M601.3,242.4c-2.2,1.3-2.9,2.5-3.8,2.4c-1.9,0-2.5-2.5-1.2-5.7c1.3-3.3,4.8-7.3,7.9-10.5
			c2-2.1,0.7-4.8-0.5-6.1c-0.4-0.5-1-0.4-1.8,0.2c-2.5,1.7-4.8,2.7-6.9,3c1.9-4,2.7-7.6,0.7-7.5c-2.4,0.1-8.6,7.6-5.1,9.9
			c-2.7,3.4-7.5,9.3-9.2,12.1c-0.4,0.7-0.7,1.3-1,1.9c-2,1.8-4,2.9-5.6,2.8c-2.9-0.2-1.8-5.4,1.2-11.6c6.1-3.7,13.9-11.4,16.5-19.1
			c1-3,0.8-5.3-1-6.9c-0.9-0.8-1.8-0.7-2.8,0.4c-7.1,6.8-15.4,18.3-18.6,29.2c-0.2,0.7-0.4,1.4-0.5,2c-2.8,3.6-6.4,6.4-8.9,6.3
			c-2.9-0.2-1.8-5.4,1.2-11.6c6.1-3.7,13.9-11.4,16.5-19.1c1-3,0.8-5.3-1-6.9c-0.9-0.8-1.8-0.7-2.8,0.4
			c-7.1,6.8-15.4,18.3-18.6,29.2c-0.2,0.8-0.4,1.5-0.5,2.1c-2.3,3.3-5.2,6.1-7.6,6.2c-2.1,0.2-2.1-2.3-0.2-6
			c1.6-3.2,4.6-7.5,6.2-10.3c1.8-3.2,1.5-5.9,0.5-6.8c-0.5-0.6-1-0.4-1.6,0.4c-2.7,3.3-7.5,10.8-9.5,15.4c-0.3,0.6-0.5,1.3-0.7,1.9
			c-2.9,3-6.7,5.7-10.7,5.7c-3.9,0-4.9-5.2-0.8-12.3c3.3-5.8,8.5-9.9,9.6-9c0.9,0.7-1.3,3.4-2.2,5.7c-1.1,2.8-0.3,4.7,1.2,5.4
			c0.8,0.4,1.1,0.2,1.4-0.5c1.5-3.4,4.4-6.8,3.2-9.4c-0.7-1.4-1.7-2.4-3.4-3.4c-3.1-1.8-10,1.7-14.7,9.7c-1.8,3-2.6,6-2.5,8.5
			c-2.3,3.1-4.8,5.5-6.8,5.6c-2.4,0.2-2.5-2.8-0.6-6.4c1.7-3.3,5.3-8,6.8-10.8c1.9-3.3,0.1-6.3-2.1-6.6c-2.1-0.3-6.8,3.2-10,6.3
			c0.9-2.3,1.1-4.4,0.2-6c-0.3-0.6-0.9-0.7-1.4,0c-4.5,5.9-10.2,14.7-11.8,18.7c-0.3,0.8-0.6,1.6-0.7,2.3c-1.6,1.7-3.3,2.8-4.6,2.9
			c-2.4,0.2-2.4-2.4-0.5-6.1c1.7-3.3,5.3-7.9,6.9-10.8c1.8-3.2,1.5-5.9,0.6-7c-0.5-0.6-1-0.4-1.7,0.4c-2.2,2.7-4.4,7.1-8.9,13.5
			c-3.9,5.5-7.8,9.8-10.4,9.7c-1.4-0.1-1.5-2.3,0.1-5.4c1.5-3,3.1-5.5,5.8-9.2c2.6-3.7,3.1-6.4,1.8-8.4c-0.5-0.6-1.1-0.6-1.6,0.1
			c-0.9,1.1-2,2.5-2.7,3.5c-2.5,3.5-6.3,6.5-10,6.6c0.1-0.5,0.2-0.9,0.2-1.3c0.7-4.7-1.2-5-2.6-6.9c-1.3-1.7-2.3-2.2-4.3-2.1
			c-3.9,0.3-8.2,3.9-11,8.3c-3.2,5.1-4.6,10.5-2,14.1c2.3,3.2,5.6,3.4,8.1,2.6c4.8-1.6,9.2-7.9,11.1-13.2c2,0.2,4.1-0.4,6-1.2
			c-1.2,2-2.2,3.9-2.9,5.4c-1.7,4.2-1.9,8.7,2.7,9c3.7,0.3,7.3-3.1,9.8-6.1c-0.8,3.6,0.7,6.1,4.9,6.1c1.8,0,3.7-0.8,5.5-1.9
			c0.2,0.5,0.4,0.9,0.8,1.3c0.5,0.6,1,0.3,1.3-0.3c3.2-5.9,6.5-12,10.7-16.1c4.5-4.5,8.4-6.3,9.1-6c1.1,0.5-5.1,7.2-7.7,13.4
			c-2.3,5.5-1.2,9.4,4.3,9.3c2.9,0,6.2-2,8.4-4.5c1.1,2.6,3.7,4.2,7.5,4.1c3.5-0.1,7.3-1.7,10.1-4c0.2,2.3,1.8,3.8,4.8,3.7
			c2.8,0,6-1.6,8.3-4.2c0.5,2.6,2.5,3.8,5.3,3.8c3.3,0,6.5-2.1,8.8-4.1c0.5,2.6,2.5,3.8,5.3,3.8c1.7,0,3.4-0.6,5-1.4
			c0.1,1.1,0.4,2.1,1.2,2.9c0.5,0.6,1,0.2,1.1-0.3c0.7-2.3,2.1-5,3.8-7.9c0.1-0.2,0.2-0.3,0.3-0.4c0,0,0,0,0,0
			c2.6-4.1,5.6-8.3,7.2-10.9c2,0,4.8-0.6,7.8-2.5c-2.8,2.9-6.9,7.5-8.7,11.6c-2,4.7-0.4,8.8,4.3,9c1.1,0,3.4-0.7,5.4-3
			C604.3,241.2,603.6,241.2,601.3,242.4z M579.2,227.4c5.1-8.1,10.4-15.2,11.2-14.7c0.8,0.5-3.6,10.6-13,17.7
			C578,229.5,578.6,228.5,579.2,227.4z M565.2,227.7c5.1-8.1,10.4-15.2,11.2-14.7c0.8,0.5-3.6,10.6-13,17.7
			C563.9,229.7,564.5,228.7,565.2,227.7z M465.2,239c-3.7,5.8-7.9,8.1-9.5,6.7c-1.6-1.4-0.3-7.1,2.8-11.9c1.6-2.5,3.7-4.6,5.5-6
			c-0.2,2.6,1.7,5,3.8,6.1C467.1,235.5,466.3,237.2,465.2,239z M468.4,232.1c-1.1-1-1.5-2.5-1.2-4.2c0.3-1.8,1.9-2.2,2-0.2
			C469.2,228.7,469.1,230.2,468.4,232.1z"/>
	</g>
</g>
</svg>
