<?xml version="1.0" encoding="utf-8"?>
<!-- Generator: Adobe Illustrator 18.1.1, SVG Export Plug-In . SVG Version: 6.00 Build 0)  -->
<!DOCTYPE svg PUBLIC "-//W3C//DTD SVG 1.1 Tiny//EN" "http://www.w3.org/Graphics/SVG/1.1/DTD/svg11-tiny.dtd">
<svg version="1.1" baseProfile="tiny" id="Layer_1" xmlns="http://www.w3.org/2000/svg" xmlns:xlink="http://www.w3.org/1999/xlink"
	 x="0px" y="0px" viewBox="0 0 164.1 45" xml:space="preserve">
<g>
	<g>
		<path fill="#00B7A3" class="red-text" d="M6.6,27.6c5.5,1.9,11.1-2.8,14.9-8.8c3.5-5.6,5.2-13.4,0.3-15.5c-1.1-1.1-3.2-1.6-5.7-0.7
			C11.2,4.2,2.9,11.7,2.3,20.2C2,23.5,3.2,26.4,6.6,27.6z M8.9,12.2c4.3-5.9,9.8-8.7,11.8-8c2.2,0.8,1.9,6.7-2.3,13.4
			c-3.9,6.2-9,9.5-11.8,8.4C4,24.9,4.5,18.2,8.9,12.2z"/>
		<path fill="#FFF" class="teal-text" d="M8.1,26.8c5.5,1.9,11.1-2.8,14.9-8.8c3.5-5.6,5.2-13.4,0.3-15.5c-1.1-1.1-3.1-1.5-5.6-0.7
			C12.7,3.4,4.4,11,3.8,19.4C3.6,22.7,4.7,25.6,8.1,26.8z M10.4,11.4c4.3-5.8,9.8-8.7,11.8-8c2.2,0.8,1.9,6.7-2.3,13.4
			c-3.9,6.2-9,9.5-11.8,8.4C5.5,24.2,6,17.4,10.4,11.4z"/>
		<path fill="none" stroke="#FFFFFF" stroke-width="3.696699e-02" d="M8.1,26.8c5.5,1.9,11.1-2.8,14.9-8.8
			c3.5-5.6,5.2-13.4,0.3-15.5c-1.1-1.1-3.1-1.5-5.6-0.7C12.7,3.4,4.4,11,3.8,19.4C3.6,22.7,4.7,25.6,8.1,26.8z M10.4,11.4
			c4.3-5.8,9.8-8.7,11.8-8c2.2,0.8,1.9,6.7-2.3,13.4c-3.9,6.2-9,9.5-11.8,8.4C5.5,24.2,6,17.4,10.4,11.4z"/>
	</g>
	<g>
		<path fill="#00B7A3" class="red-text" d="M21.2,27.5c0.3,0.4,0.4,0.3,0.7-0.1c1.6-3.1,3.3-6.1,4.9-8.8c1.9,2.8,3.4,5.7,4.9,8.6
			c0.2,0.4,0.4,0.4,0.7,0.1c0.7-0.8,1.1-2.2,0.4-4.4c-0.4-1.1-1.4-2.9-2.6-5C36,14,41.9,9,44,6.5c1.6-1.9,1.8-3.4,1.6-4.2
			c-0.2-0.4-0.4-0.4-0.8-0.1c-4.2,4.2-10.4,9.3-16.1,13.3c1.7-2.7,3.2-5,4.4-7c1.9-3,1.9-5,1.3-5.8c-0.3-0.5-0.6-0.5-1-0.1
			c-2.8,3.5-11,17.2-12.2,20.5C20.3,25.5,20.5,26.7,21.2,27.5z"/>
		<path fill="#FFF" class="teal-text" d="M22.7,26.7c0.3,0.4,0.4,0.3,0.7-0.1c1.6-3.1,3.3-6.1,4.9-8.8c1.9,2.8,3.4,5.7,4.9,8.6
			c0.2,0.4,0.4,0.4,0.7,0.1c0.7-0.8,1.1-2.2,0.4-4.4c-0.4-1.1-1.4-2.9-2.6-5c5.9-3.9,11.9-8.8,13.9-11.3c1.6-1.9,1.8-3.4,1.6-4.2
			c-0.2-0.4-0.4-0.4-0.8-0.1C42,5.6,35.8,10.7,30.1,14.8c1.7-2.7,3.2-5,4.4-7c1.9-3,1.9-5,1.3-5.8c-0.3-0.5-0.6-0.5-1-0.1
			C32.1,5.3,24,18.9,22.7,22.4C21.9,24.8,22,25.9,22.7,26.7z"/>
		<path fill="none" stroke="#FFFFFF" stroke-width="3.696699e-02" d="M22.7,26.7c0.3,0.4,0.4,0.3,0.7-0.1c1.6-3.1,3.3-6.1,4.9-8.8
			c1.9,2.8,3.4,5.7,4.9,8.6c0.2,0.4,0.4,0.4,0.7,0.1c0.7-0.8,1.1-2.2,0.4-4.4c-0.4-1.1-1.4-2.9-2.6-5c5.9-3.9,11.9-8.8,13.9-11.3
			c1.6-1.9,1.8-3.4,1.6-4.2c-0.2-0.4-0.4-0.4-0.8-0.1C42,5.6,35.8,10.7,30.1,14.8c1.7-2.7,3.2-5,4.4-7c1.9-3,1.9-5,1.3-5.8
			c-0.3-0.5-0.6-0.5-1-0.1C32.1,5.3,24,18.9,22.7,22.4C21.9,24.8,22,25.9,22.7,26.7z"/>
	</g>
	<g>
		<path fill="#00B7A3" class="red-text" d="M45.7,26.2c2.1,1.1,5.7,1.1,8.8-1c1.9-1.2,4.7-4.2,3.9-6.9c-0.2-0.5-0.6-0.5-0.9-0.1
			c-3.5,6-8.1,8.8-10.7,6.7c-1.9-1.6-1.9-7.4,2.1-13.4c4.2-6,10.7-9.4,11.8-8.1c0.9,1-0.8,3.3-1.6,5.4c-0.8,2-0.2,3.3,0.7,3.8
			c0.4,0.4,0.8,0.1,1-0.3c0.5-1.1,1.2-2.7,1.9-4s0.9-2.4,0.6-3.5c-0.3-1-1.1-2.1-2-2.9c-1.2-1.1-3.3-0.9-5.6,0
			C51,3.7,43,11,42.6,19.5C42.5,22.7,43.9,25.2,45.7,26.2z"/>
		<path fill="#FFF" class="teal-text" d="M47.2,25.4c2.1,1.1,5.7,1.1,8.8-1c1.9-1.2,4.7-4.2,3.9-6.9C59.7,17,59.3,17,59,17.4
			c-3.5,6-8.1,8.8-10.7,6.7c-1.9-1.6-1.9-7.4,2.1-13.4c4.2-6,10.7-9.4,11.8-8.1c0.9,1-0.8,3.3-1.6,5.4c-0.8,2-0.2,3.3,0.7,3.8
			c0.4,0.4,0.8,0.1,1-0.3c0.5-1.1,1.2-2.7,1.9-4s0.9-2.4,0.6-3.5c-0.3-1-1.1-2.1-2-2.9c-1.2-1.1-3.3-0.9-5.6,0
			c-4.8,1.8-12.7,9.1-13.1,17.6C44,22,45.4,24.5,47.2,25.4z"/>
		<path fill="none" stroke="#FFFFFF" stroke-width="3.696699e-02" d="M47.2,25.4c2.1,1.1,5.7,1.1,8.8-1c1.9-1.2,4.7-4.2,3.9-6.9
			C59.7,17,59.3,17,59,17.4c-3.5,6-8.1,8.8-10.7,6.7c-1.9-1.6-1.9-7.4,2.1-13.4c4.2-6,10.7-9.4,11.8-8.1c0.9,1-0.8,3.3-1.6,5.4
			c-0.8,2-0.2,3.3,0.7,3.8c0.4,0.4,0.8,0.1,1-0.3c0.5-1.1,1.2-2.7,1.9-4s0.9-2.4,0.6-3.5c-0.3-1-1.1-2.1-2-2.9
			c-1.2-1.1-3.3-0.9-5.6,0c-4.8,1.8-12.7,9.1-13.1,17.6C44,22,45.4,24.5,47.2,25.4z"/>
	</g>
	<g>
		<path fill="#00B7A3" class="red-text" d="M128,9.5c0.6-0.5,1-1.7,0.4-2.7c-0.4-1.1-1.7-1.5-2.4-0.8c-0.7,0.7-1,1.9-0.4,2.9
			C126.3,10.1,127.5,10.2,128,9.5z"/>
		<path fill="#FFF" class="teal-text" d="M129.6,8.8c0.6-0.5,1-1.7,0.4-2.7c-0.4-1.1-1.7-1.5-2.4-0.8c-0.7,0.7-1,1.9-0.4,2.9
			C127.8,9.3,129,9.4,129.6,8.8z"/>
		<path fill="none" stroke="#FFFFFF" stroke-width="3.696699e-02" d="M129.6,8.8c0.6-0.5,1-1.7,0.4-2.7c-0.4-1.1-1.7-1.5-2.4-0.8
			c-0.7,0.7-1,1.9-0.4,2.9C127.8,9.3,129,9.4,129.6,8.8z"/>
	</g>
	<g>
		<path fill="#00B7A3" class="red-text" d="M161,23.6c-2.5-2.4-6.7,1.3-8.8,1.3c-1.2,0-1.6-1.6-0.8-3.6c0.8-2.1,3-4.6,5-6.7c1.3-1.3,0.4-3.1-0.3-3.9
			c-0.3-0.4-0.6-0.3-1.1,0.1c-1.6,1.1-3.1,1.8-4.4,1.9c1.2-2.6,1.7-4.9,0.4-4.8c-1.5,0.1-5.5,4.9-3.2,6.3c-1.7,2.1-4.8,5.9-5.8,7.7
			c-0.3,0.4-0.4,0.8-0.6,1.2c-1.2,1.1-2.6,1.9-3.5,1.8c-1.9-0.1-1.1-3.4,0.8-7.3c3.9-2.4,8.8-7.3,10.5-12.2c0.6-1.9,0.4-3.4-0.6-4.3
			c-0.5-0.5-1.1-0.4-1.8,0.3c-4.5,4.3-9.8,11.6-11.9,18.6c-0.2,0.4-0.3,0.9-0.3,1.3c-1.8,2.3-4.1,4.1-5.7,4
			c-1.9-0.1-1.1-3.4,0.8-7.3c3.9-2.4,8.8-7.3,10.5-12.2c0.6-1.9,0.4-3.4-0.6-4.3c-0.5-0.5-1.1-0.4-1.8,0.3
			c-4.5,4.3-9.8,11.6-11.9,18.6c-0.2,0.4-0.3,1-0.4,1.3c-1.4,2.1-3.4,3.9-4.9,4c-1.3,0.1-1.3-1.4-0.2-3.8c1-2,2.9-4.8,4-6.5
			c1.1-2,0.9-3.7,0.4-4.3c-0.3-0.4-0.6-0.3-1,0.3c-1.7,2.1-4.8,6.8-6,9.8c-0.2,0.4-0.4,0.8-0.4,1.1c-1.9,1.9-4.2,3.6-6.8,3.6
			c-2.5,0-3.1-3.3-0.4-7.9c2.1-3.6,5.4-6.3,6.1-5.7c0.5,0.4-0.8,2.1-1.4,3.6c-0.7,1.8-0.2,3,0.8,3.4c0.5,0.3,0.7,0.2,0.9-0.4
			c1-2.2,2.8-4.3,2-6c-0.4-0.9-1.1-1.5-2.1-2.1c-2-1.1-6.4,1.1-9.4,6.1c-1.1,1.9-1.7,3.8-1.6,5.4c-1.5,1.9-3,3.4-4.3,3.5
			c-1.5,0.1-1.6-1.8-0.4-4.1c1.1-2.1,3.4-5,4.3-6.8c1.1-2.1,0-4.1-1.3-4.2c-1.3-0.2-4.3,2-6.4,4c0.5-1.4,0.7-2.8,0.2-3.8
			c-0.2-0.4-0.5-0.4-0.9,0c-2.9,3.7-6.5,9.4-7.5,11.9c-0.2,0.5-0.4,1-0.4,1.4c-1.1,1.1-2,1.8-2.9,1.9c-1.5,0.1-1.6-1.5-0.3-3.9
			c1.1-2.1,3.4-5,4.4-6.8c1.1-2,0.9-3.7,0.4-4.4c-0.3-0.4-0.6-0.3-1.1,0.3c-1.4,1.8-2.8,4.5-5.7,8.6c-2.5,3.5-5,6.3-6.5,6.2
			c-0.9-0.1-1-1.4,0-3.4c0.9-1.9,2-3.5,3.6-5.8c1.7-2.4,1.9-4.1,1.1-5.4c-0.3-0.4-0.7-0.4-1.1,0.1c-0.5,0.7-1.2,1.6-1.8,2.2
			c-1.6,2.2-4,4.2-6.4,4.2c0.1-0.4,0.1-0.5,0.2-0.8c0.4-2.9-0.7-3.2-1.7-4.3c-0.8-1.1-1.5-1.4-2.7-1.3c-2.5,0.2-5.2,2.5-7,5.2
			c-2,3.2-2.9,6.6-1.2,9c1.5,2,3.6,2.2,5.1,1.7c3-1,5.8-5,7-8.4c1.2,0.1,2.6-0.3,3.8-0.8c-0.8,1.2-1.4,2.5-1.9,3.4
			c-1.1,2.7-1.2,5.6,1.7,5.7c2.4,0.2,4.6-2,6.2-3.9c-0.5,2.3,0.4,3.9,3.1,3.9c1.1,0,2.4-0.5,3.4-1.2c0.1,0.4,0.3,0.6,0.5,0.8
			c0.4,0.4,0.6,0.2,0.8-0.2c2-3.8,4.2-7.6,6.8-10.3c2.8-2.8,5.3-4,5.7-3.8c0.7,0.3-3.3,4.6-4.9,8.5c-1.4,3.4-0.8,5.9,2.7,5.9
			c1.9,0,3.9-1.2,5.4-2.8c0.7,1.6,2.3,2.7,4.8,2.6c2.2-0.1,4.6-1.1,6.5-2.6c0.2,1.5,1.1,2.4,3.1,2.4c1.8,0,3.8-1.1,5.3-2.7
			c0.4,1.6,1.6,2.4,3.4,2.4c2.1,0,4.2-1.3,5.6-2.6c0.4,1.7,1.6,2.4,3.4,2.5c1.1,0,2.2-0.4,3.2-0.9c0,0.7,0.3,1.3,0.7,1.9
			c0.4,0.4,0.6,0.2,0.7-0.2c0.4-1.4,1.3-3.2,2.5-5c0.1-0.1,0.1-0.2,0.2-0.3l0,0c1.6-2.7,3.5-5.3,4.6-6.9c1.2,0,3.1-0.4,5-1.6
			c-1.8,1.9-4.4,4.8-5.5,7.3c-1.2,3-0.1,5.7,2.7,5.7c2.8-0.1,8-3.3,8.4-1c0.3,1.3-1.4,4.2-4.7,5.7c-5.2,2.6-10.8,2.6-14.6,2.9
			c-7.9,0.8-15.7,0.4-23.6-0.2c-14.9-1.1-29.5-3.5-44.4-4.7c-14.8-1.1-28.5-1.1-43.3,0c-6.6,0.4-13.4,0.9-20,2.2
			c-3.9,0.8-8.1,2.5-9.5,6.6c-1.7,5.2,2.7,7.9,7.4,7c6.7-1.3,12.9-6.5,18.4-10.4c1.6-1.1,1.1-2.1-0.5-1c-2.8,2-5.7,3.8-8.8,5.4
			C14,40.1,6.1,42.7,3.7,39.7c-1.9-2.4,0.8-5,3-5.7c2.2-0.8,10.9-2.5,14.7-2.9c15.3-1.5,30-1.8,45.4-1.1c29.2,1.3,60.8,13,88.7,2.6
			C159.8,31,163.8,26.3,161,23.6z M140.5,13.9c3.3-5.1,6.6-9.6,7.2-9.3s-2.3,6.7-8.3,11.2C139.7,15.2,140,14.5,140.5,13.9z
			 M131.5,14.1c3.3-5.1,6.6-9.6,7.2-9.3c0.5,0.4-2.3,6.7-8.3,11.2C130.7,15.3,131.1,14.7,131.5,14.1z M67.9,21.2
			c-2.3,3.6-5,5.1-6,4.2c-1-0.9-0.2-4.5,1.8-7.5c1.1-1.6,2.4-2.9,3.5-3.8c-0.1,1.6,1.1,3.2,2.4,3.9C69.2,19,68.7,20.1,67.9,21.2z
			 M70.1,16.8c-0.7-0.6-1-1.6-0.8-2.7c0.2-1.1,1.1-1.4,1.2-0.2C70.6,14.7,70.4,15.6,70.1,16.8z"/>
		<path fill="#FFF" class="teal-text" d="M162.5,22.9c-2.5-2.4-6.7,1.3-8.8,1.3c-1.2,0-1.6-1.6-0.8-3.6c0.8-2.1,3-4.6,5-6.7
			c1.3-1.3,0.4-3.1-0.3-3.9c-0.3-0.4-0.6-0.3-1.1,0.1c-1.6,1.1-3.1,1.8-4.4,1.9c1.2-2.6,1.7-4.9,0.4-4.8c-1.5,0.1-5.5,4.9-3.2,6.3
			c-1.7,2.1-4.8,5.9-5.8,7.7c-0.3,0.4-0.4,0.8-0.6,1.2c-1.2,1.1-2.6,1.9-3.5,1.8c-1.9-0.1-1.1-3.4,0.8-7.3
			c3.9-2.4,8.8-7.3,10.5-12.2c0.6-1.9,0.4-3.4-0.6-4.3c-0.5-0.5-1.1-0.4-1.8,0.3c-4.5,4.3-9.8,11.6-11.9,18.6
			c-0.2,0.4-0.3,0.9-0.3,1.3c-1.8,2.3-4.1,4.1-5.7,4c-1.9-0.1-1.1-3.4,0.8-7.3c3.9-2.4,8.8-7.3,10.5-12.2c0.6-1.9,0.4-3.4-0.6-4.3
			c-0.5-0.5-1.1-0.4-1.8,0.3c-4.5,4.3-9.8,11.6-11.9,18.6c-0.2,0.4-0.3,1-0.4,1.3c-1.4,2.1-3.4,3.9-4.9,4c-1.3,0.1-1.3-1.4-0.2-3.8
			c1-2,2.9-4.8,4-6.5c1.1-2,0.9-3.7,0.4-4.3c-0.3-0.4-0.6-0.3-1,0.3c-1.7,2.1-4.8,6.8-6,9.8c-0.2,0.4-0.4,0.8-0.4,1.1
			c-1.9,1.9-4.2,3.6-6.8,3.6c-2.5,0-3.1-3.3-0.4-7.9c2.1-3.6,5.4-6.3,6.1-5.7c0.5,0.4-0.8,2.1-1.4,3.6c-0.7,1.8-0.2,3,0.8,3.4
			c0.5,0.3,0.7,0.2,0.9-0.4c1-2.2,2.8-4.3,2-6c-0.4-0.9-1.1-1.5-2.1-2.1c-2-1.1-6.4,1.1-9.4,6.1c-1.1,1.9-1.7,3.8-1.6,5.4
			c-1.5,1.9-3,3.4-4.3,3.5c-1.5,0.1-1.6-1.8-0.4-4.1c1.1-2.1,3.4-5,4.3-6.8c1.1-2.1,0-4.1-1.3-4.2c-1.3-0.2-4.3,2-6.4,4
			c0.5-1.4,0.7-2.8,0.2-3.8c-0.2-0.4-0.5-0.4-0.9,0c-2.9,3.7-6.5,9.4-7.5,11.9c-0.2,0.5-0.4,1-0.4,1.4c-1.1,1.1-2,1.8-2.9,1.9
			c-1.5,0.1-1.6-1.5-0.3-3.9c1.1-2.1,3.4-5,4.4-6.8c1.1-2,0.9-3.7,0.4-4.4c-0.3-0.4-0.6-0.3-1.1,0.3c-1.4,1.8-2.8,4.5-5.7,8.6
			c-2.5,3.5-5,6.3-6.5,6.2c-0.9-0.1-1-1.4,0-3.4c0.9-1.9,2-3.5,3.6-5.8c1.7-2.4,1.9-4.1,1.1-5.4c-0.3-0.4-0.7-0.4-1.1,0.1
			c-0.5,0.7-1.2,1.6-1.8,2.2c-1.6,2.2-4,4.2-6.4,4.2c0.1-0.4,0.1-0.5,0.2-0.8c0.4-2.9-0.7-3.2-1.7-4.3c-0.8-1.1-1.5-1.4-2.7-1.3
			c-2.5,0.2-5.2,2.5-7,5.2c-2,3.2-2.9,6.6-1.2,9c1.5,2,3.6,2.2,5.1,1.7c3-1,5.8-5,7-8.4c1.2,0.1,2.6-0.3,3.8-0.8
			c-0.8,1.2-1.4,2.5-1.9,3.4c-1.1,2.7-1.2,5.6,1.7,5.7c2.4,0.2,4.6-2,6.2-3.9c-0.5,2.3,0.4,3.9,3.1,3.9c1.1,0,2.4-0.5,3.4-1.2
			c0.1,0.4,0.3,0.6,0.5,0.8c0.4,0.4,0.6,0.2,0.8-0.2c2-3.8,4.2-7.6,6.8-10.3c2.8-2.8,5.3-4,5.7-3.8c0.7,0.3-3.3,4.6-4.9,8.5
			c-1.4,3.4-0.8,5.9,2.7,5.9c1.9,0,3.9-1.2,5.4-2.8c0.7,1.6,2.3,2.7,4.8,2.6c2.2-0.1,4.6-1.1,6.5-2.6c0.2,1.5,1.1,2.4,3.1,2.4
			c1.8,0,3.8-1.1,5.3-2.7c0.4,1.6,1.6,2.4,3.4,2.4c2.1,0,4.2-1.3,5.6-2.6c0.4,1.7,1.6,2.4,3.4,2.5c1.1,0,2.2-0.4,3.2-0.9
			c0,0.7,0.3,1.3,0.7,1.9c0.4,0.4,0.6,0.2,0.7-0.2c0.4-1.4,1.3-3.2,2.5-5c0.1-0.1,0.1-0.2,0.2-0.3l0,0c1.6-2.7,3.5-5.3,4.6-6.9
			c1.2,0,3.1-0.4,5-1.6c-1.8,1.9-4.4,4.8-5.5,7.3c-1.2,3-0.1,5.7,2.7,5.7c2.9-0.1,8-3.3,8.4-1c0.3,1.3-1.4,4.2-4.7,5.7
			c-5.2,2.6-10.8,2.6-14.6,2.9c-7.9,0.8-15.7,0.4-23.6-0.2c-14.9-1.1-29.5-3.5-44.4-4.7c-14.8-1.1-28.5-1.1-43.3,0
			c-6.6,0.4-13.4,0.9-20,2.2c-4,0.6-8.2,2.4-9.6,6.5c-1.7,5.2,2.7,7.9,7.4,7c6.7-1.3,12.9-6.5,18.4-10.4c1.6-1.1,1.1-2.1-0.5-1
			c-2.8,2-5.7,3.8-8.8,5.4c-2.8,1.4-10.7,4-13.1,1c-1.9-2.4,0.8-5,3-5.7c2.2-0.8,10.9-2.5,14.7-2.9c15.3-1.5,30-1.8,45.4-1.1
			c29.2,1.3,60.8,13,88.7,2.6C161.3,30.2,165.3,25.6,162.5,22.9z M142,13.1c3.3-5.1,6.6-9.6,7.2-9.3s-2.3,6.7-8.3,11.2
			C141.2,14.4,141.6,13.8,142,13.1z M133,13.3c3.3-5.1,6.6-9.6,7.2-9.3c0.5,0.4-2.3,6.7-8.3,11.2C132.2,14.6,132.7,13.9,133,13.3z
			 M69.5,20.5c-2.3,3.6-5,5.1-6,4.2c-1-0.9-0.2-4.5,1.8-7.5c1.1-1.6,2.4-2.9,3.5-3.8c-0.1,1.6,1.1,3.2,2.4,3.9
			C70.8,18.2,70.2,19.3,69.5,20.5z M71.6,16.1c-0.7-0.6-1-1.6-0.8-2.7c0.2-1.1,1.1-1.4,1.2-0.2C72.1,13.9,72,14.9,71.6,16.1z"/>
		<path fill="none" stroke="#FFFFFF" stroke-width="3.696699e-02" d="M162.5,22.9c-2.5-2.4-6.7,1.3-8.8,1.3c-1.2,0-1.6-1.6-0.8-3.6
			c0.8-2.1,3-4.6,5-6.7c1.3-1.3,0.4-3.1-0.3-3.9c-0.3-0.4-0.6-0.3-1.1,0.1c-1.6,1.1-3.1,1.8-4.4,1.9c1.2-2.6,1.7-4.9,0.4-4.8
			c-1.5,0.1-5.5,4.9-3.2,6.3c-1.7,2.1-4.8,5.9-5.8,7.7c-0.3,0.4-0.4,0.8-0.6,1.2c-1.2,1.1-2.6,1.9-3.5,1.8c-1.9-0.1-1.1-3.4,0.8-7.3
			c3.9-2.4,8.8-7.3,10.5-12.2c0.6-1.9,0.4-3.4-0.6-4.3c-0.5-0.5-1.1-0.4-1.8,0.3c-4.5,4.3-9.8,11.6-11.9,18.6
			c-0.2,0.4-0.3,0.9-0.3,1.3c-1.8,2.3-4.1,4.1-5.7,4c-1.9-0.1-1.1-3.4,0.8-7.3c3.9-2.4,8.8-7.3,10.5-12.2c0.6-1.9,0.4-3.4-0.6-4.3
			c-0.5-0.5-1.1-0.4-1.8,0.3c-4.5,4.3-9.8,11.6-11.9,18.6c-0.2,0.4-0.3,1-0.4,1.3c-1.4,2.1-3.4,3.9-4.9,4c-1.3,0.1-1.3-1.4-0.2-3.8
			c1-2,2.9-4.8,4-6.5c1.1-2,0.9-3.7,0.4-4.3c-0.3-0.4-0.6-0.3-1,0.3c-1.7,2.1-4.8,6.8-6,9.8c-0.2,0.4-0.4,0.8-0.4,1.1
			c-1.9,1.9-4.2,3.6-6.8,3.6c-2.5,0-3.1-3.3-0.4-7.9c2.1-3.6,5.4-6.3,6.1-5.7c0.5,0.4-0.8,2.1-1.4,3.6c-0.7,1.8-0.2,3,0.8,3.4
			c0.5,0.3,0.7,0.2,0.9-0.4c1-2.2,2.8-4.3,2-6c-0.4-0.9-1.1-1.5-2.1-2.1c-2-1.1-6.4,1.1-9.4,6.1c-1.1,1.9-1.7,3.8-1.6,5.4
			c-1.5,1.9-3,3.4-4.3,3.5c-1.5,0.1-1.6-1.8-0.4-4.1c1.1-2.1,3.4-5,4.3-6.8c1.1-2.1,0-4.1-1.3-4.2c-1.3-0.2-4.3,2-6.4,4
			c0.5-1.4,0.7-2.8,0.2-3.8c-0.2-0.4-0.5-0.4-0.9,0c-2.9,3.7-6.5,9.4-7.5,11.9c-0.2,0.5-0.4,1-0.4,1.4c-1.1,1.1-2,1.8-2.9,1.9
			c-1.5,0.1-1.6-1.5-0.3-3.9c1.1-2.1,3.4-5,4.4-6.8c1.1-2,0.9-3.7,0.4-4.4c-0.3-0.4-0.6-0.3-1.1,0.3c-1.4,1.8-2.8,4.5-5.7,8.6
			c-2.5,3.5-5,6.3-6.5,6.2c-0.9-0.1-1-1.4,0-3.4c0.9-1.9,2-3.5,3.6-5.8c1.7-2.4,1.9-4.1,1.1-5.4c-0.3-0.4-0.7-0.4-1.1,0.1
			c-0.5,0.7-1.2,1.6-1.8,2.2c-1.6,2.2-4,4.2-6.4,4.2c0.1-0.4,0.1-0.5,0.2-0.8c0.4-2.9-0.7-3.2-1.7-4.3c-0.8-1.1-1.5-1.4-2.7-1.3
			c-2.5,0.2-5.2,2.5-7,5.2c-2,3.2-2.9,6.6-1.2,9c1.5,2,3.6,2.2,5.1,1.7c3-1,5.8-5,7-8.4c1.2,0.1,2.6-0.3,3.8-0.8
			c-0.8,1.2-1.4,2.5-1.9,3.4c-1.1,2.7-1.2,5.6,1.7,5.7c2.4,0.2,4.6-2,6.2-3.9c-0.5,2.3,0.4,3.9,3.1,3.9c1.1,0,2.4-0.5,3.4-1.2
			c0.1,0.4,0.3,0.6,0.5,0.8c0.4,0.4,0.6,0.2,0.8-0.2c2-3.8,4.2-7.6,6.8-10.3c2.8-2.8,5.3-4,5.7-3.8c0.7,0.3-3.3,4.6-4.9,8.5
			c-1.4,3.4-0.8,5.9,2.7,5.9c1.9,0,3.9-1.2,5.4-2.8c0.7,1.6,2.3,2.7,4.8,2.6c2.2-0.1,4.6-1.1,6.5-2.6c0.2,1.5,1.1,2.4,3.1,2.4
			c1.8,0,3.8-1.1,5.3-2.7c0.4,1.6,1.6,2.4,3.4,2.4c2.1,0,4.2-1.3,5.6-2.6c0.4,1.7,1.6,2.4,3.4,2.5c1.1,0,2.2-0.4,3.2-0.9
			c0,0.7,0.3,1.3,0.7,1.9c0.4,0.4,0.6,0.2,0.7-0.2c0.4-1.4,1.3-3.2,2.5-5c0.1-0.1,0.1-0.2,0.2-0.3l0,0c1.6-2.7,3.5-5.3,4.6-6.9
			c1.2,0,3.1-0.4,5-1.6c-1.8,1.9-4.4,4.8-5.5,7.3c-1.2,3-0.1,5.7,2.7,5.7c2.9-0.1,8-3.3,8.4-1c0.3,1.3-1.4,4.2-4.7,5.7
			c-5.2,2.6-10.8,2.6-14.6,2.9c-7.9,0.8-15.7,0.4-23.6-0.2c-14.9-1.1-29.5-3.5-44.4-4.7c-14.8-1.1-28.5-1.1-43.3,0
			c-6.6,0.4-13.4,0.9-20,2.2c-4,0.6-8.2,2.4-9.6,6.5c-1.7,5.2,2.7,7.9,7.4,7c6.7-1.3,12.9-6.5,18.4-10.4c1.6-1.1,1.1-2.1-0.5-1
			c-2.8,2-5.7,3.8-8.8,5.4c-2.8,1.4-10.7,4-13.1,1c-1.9-2.4,0.8-5,3-5.7c2.2-0.8,10.9-2.5,14.7-2.9c15.3-1.5,30-1.8,45.4-1.1
			c29.2,1.3,60.8,13,88.7,2.6C161.3,30.2,165.3,25.6,162.5,22.9z M142,13.1c3.3-5.1,6.6-9.6,7.2-9.3s-2.3,6.7-8.3,11.2
			C141.2,14.4,141.6,13.8,142,13.1z M133,13.3c3.3-5.1,6.6-9.6,7.2-9.3c0.5,0.4-2.3,6.7-8.3,11.2C132.2,14.6,132.7,13.9,133,13.3z
			 M69.5,20.5c-2.3,3.6-5,5.1-6,4.2c-1-0.9-0.2-4.5,1.8-7.5c1.1-1.6,2.4-2.9,3.5-3.8c-0.1,1.6,1.1,3.2,2.4,3.9
			C70.8,18.2,70.2,19.3,69.5,20.5z M71.6,16.1c-0.7-0.6-1-1.6-0.8-2.7c0.2-1.1,1.1-1.4,1.2-0.2C72.1,13.9,72,14.9,71.6,16.1z"/>
	</g>
</g>
</svg>
